<svg width="500" height="500" xml:space="preserve" xmlns="http://www.w3.org/2000/svg">
    <g transform="translate(-15.191 -276.065)">
        <circle style="fill:#000;fill-opacity:1;stroke-width:26.0844;stroke-linecap:round;stroke-linejoin:round;stroke-opacity:.1;paint-order:markers stroke fill" cx="265.191" cy="534.675" r="250" transform="translate(0 -8.61)"/>
        <circle style="display:inline;fill:#ffda0a;fill-opacity:1;stroke-width:22.9543;stroke-linecap:round;stroke-linejoin:round;stroke-opacity:.1;paint-order:markers stroke fill" cx="265.191" cy="534.675" r="230" transform="translate(0 -8.61)"/>
        <path style="display:inline;fill:#ffa60a;stroke-width:20;stroke-linecap:round;stroke-linejoin:round;stroke-opacity:.1;paint-order:markers stroke fill" d="m224.979 335.445-19.301 19.3a17.5 17.5 0 0 0 0 24.75 17.5 17.5 0 0 0 24.75 0l27.172-27.172a230 230 0 0 0-32.621-16.878zm60.947 37.66-68.424 68.423a17.5 17.5 0 0 0 0 24.749 17.5 17.5 0 0 0 24.748 0l68.424-68.424a230 230 0 0 0-24.748-24.748zm45.53 53.074-27.173 27.172a17.5 17.5 0 0 0 0 24.748 17.5 17.5 0 0 0 24.748 0l19.301-19.301a230 230 0 0 0-16.877-32.62zm-266.454 4.539c-2.791.124-5.104.657-6.86 1.646-21.31 12.013-27.609 128.87-17.292 191.747a17.5 17.5 0 0 0-10.729 4.798l-68.418 68.418a230 230 0 0 0 24.746 24.75l64.498-64.498c1.494 2.33 3.103 4.049 4.825 5.067 27.754 16.407 200.283-80.847 200.615-113.086.311-30.225-149.513-120.696-191.385-118.842ZM-44.287 611.96a17.5 17.5 0 0 0-12.373 5.125l-19.002 19.002a230 230 0 0 0 16.693 32.803l27.057-27.057a17.5 17.5 0 0 0 0-24.748 17.5 17.5 0 0 0-12.375-5.125zm98.606 98.604a17.5 17.5 0 0 0-12.375 5.125l-27.057 27.056a230 230 0 0 0 32.805 16.694l19-19a17.5 17.5 0 0 0 0-24.75 17.5 17.5 0 0 0-12.373-5.125z" transform="translate(129.005 -21.527)"/>
    </g>
</svg>
