<svg width="2098.09" height="500" xml:space="preserve" xmlns="http://www.w3.org/2000/svg">
    <path style="font-weight:600;font-size:291.954px;line-height:.85;font-family:Montserrat;-inkscape-font-specification:'Montserrat Semi-Bold';fill:#fff;fill-opacity:1;stroke-width:1.5206" d="M1225.45 260.925c-6.812 0-12.456 2.14-16.933 6.422-4.282 4.088-6.424 9.247-6.424 15.475 0 6.034 2.142 11.192 6.424 15.474 4.477 4.282 10.12 6.422 16.933 6.422 7.007 0 12.65-2.14 16.932-6.422 4.282-4.477 6.425-9.927 6.425-16.35 0-6.034-2.24-10.998-6.716-14.89-4.282-4.088-9.829-6.131-16.641-6.131zm791.195 0c-6.812 0-12.458 2.14-16.934 6.422-4.282 4.088-6.423 9.247-6.423 15.475 0 6.034 2.14 11.192 6.423 15.474 4.476 4.282 10.122 6.422 16.934 6.422 7.007 0 12.65-2.14 16.933-6.422 4.282-4.477 6.422-9.927 6.422-16.35 0-6.034-2.237-10.998-6.714-14.89-4.282-4.088-9.828-6.131-16.64-6.131zm-102.768 8.76v79.9c-4.403-4.983-9.462-9.04-15.18-12.169-10.316-5.839-21.995-8.757-35.035-8.757-14.987 0-28.516 3.308-40.583 9.926-11.873 6.618-21.215 15.863-28.028 27.736-6.812 11.873-10.218 25.886-10.218 42.041 0 16.155 3.406 30.169 10.218 42.041 6.813 11.873 16.155 21.216 28.028 28.028 12.067 6.618 25.596 9.926 40.583 9.926 13.43 0 25.301-2.92 35.617-8.759 6.147-3.48 11.5-7.995 16.059-13.548v20.264h34.74v-216.63Zm-549.458 9.342c-18.685 0-34.157 2.821-46.419 8.466-12.067 5.45-21.12 12.846-27.153 22.189-5.84 9.148-8.758 19.269-8.758 30.363 0 10.9 2.238 19.853 6.714 26.86 4.477 7.006 10.22 12.651 17.226 16.933 7.202 4.087 15.085 7.493 23.649 10.218 8.758 2.53 17.42 4.77 25.983 6.715 8.759 1.947 16.642 4.087 23.649 6.423 7.201 2.14 13.04 5.158 17.517 9.05 4.477 3.699 6.714 8.662 6.714 14.89 0 5.061-1.556 9.635-4.67 13.722-3.114 3.893-7.98 7.007-14.598 9.343-6.617 2.335-15.278 3.503-25.983 3.503-12.652 0-25.011-2.142-37.079-6.424-12.067-4.282-22.19-9.633-30.364-16.056l-13.137 29.486c8.564 7.202 20.144 13.14 34.742 17.81 14.597 4.477 29.878 6.714 45.838 6.714 18.685 0 34.156-2.724 46.418-8.174 12.263-5.644 21.315-13.04 27.154-22.189 6.033-9.342 9.05-19.463 9.05-30.363 0-10.705-2.239-19.56-6.715-26.568-4.282-7.007-10.025-12.552-17.226-16.64-7.007-4.087-14.89-7.397-23.649-9.928a391.074 391.074 0 0 0-25.983-6.714c-8.759-2.14-16.739-4.283-23.94-6.424-7.007-2.14-12.75-5.06-17.226-8.757-4.282-3.893-6.423-8.953-6.423-15.182 0-5.255 1.46-9.927 4.38-14.015 3.113-4.087 7.882-7.395 14.305-9.926 6.618-2.53 15.182-3.795 25.692-3.795 8.954 0 18.296 1.362 28.028 4.087 9.732 2.53 19.173 6.522 28.32 11.971l11.97-29.488c-8.954-5.839-19.463-10.315-31.53-13.43-12.068-3.114-24.234-4.67-36.496-4.67zm-734.847 2.919v204.368h37.663V347.95l112.694 138.364h31.238V281.946h-37.66v138.367L660.81 281.946Zm850.46 14.013v34.452h-25.691v29.194h25.692v76.2c0 17.323 4.672 30.461 14.015 39.414 9.342 8.759 22.576 13.138 39.704 13.138 6.618 0 13.042-.875 19.27-2.627 6.228-1.751 11.483-4.38 15.765-7.884l-10.219-25.982c-5.45 4.282-12.26 6.422-20.435 6.422-6.812 0-12.165-2.043-16.058-6.13-3.698-4.088-5.546-9.83-5.546-17.226v-75.325h41.748v-29.194h-41.748v-34.452Zm-557.923 32.7c-12.457 0-24.524 1.653-36.202 4.962-11.484 3.114-21.41 7.884-29.78 14.307l14.306 26.567c5.84-4.866 12.944-8.66 21.314-11.386 8.564-2.725 17.225-4.087 25.983-4.087 13.04 0 22.772 3.016 29.195 9.05 6.423 5.838 9.636 14.112 9.636 24.817v2.335h-40.29c-15.765 0-28.417 2.043-37.954 6.13-9.537 4.088-16.447 9.636-20.729 16.643-4.087 7.007-6.131 14.888-6.131 23.647 0 8.953 2.336 17.031 7.007 24.233 4.866 7.007 11.677 12.554 20.435 16.641 8.76 3.893 18.978 5.84 30.656 5.84 13.82 0 25.206-2.53 34.159-7.591 6.303-3.487 11.267-7.944 14.89-13.371v18.918h34.45v-91.381c0-22.578-6.228-39.22-18.684-49.926-12.262-10.9-29.683-16.348-52.261-16.348zm1230.588 0c-15.96 0-30.17 3.405-42.627 10.218-12.457 6.812-22.285 16.252-29.487 28.32-7.201 11.872-10.803 25.594-10.803 41.165 0 15.377 3.602 29.097 10.804 41.164 7.201 12.068 17.029 21.607 29.486 28.614 12.456 6.812 26.666 10.217 42.626 10.217 16.155 0 30.46-3.405 42.917-10.217 12.651-7.007 22.481-16.546 29.488-28.613 7.201-12.068 10.801-25.788 10.801-41.165 0-15.765-3.6-29.585-10.801-41.457-7.007-11.873-16.837-21.216-29.488-28.028-12.457-6.813-26.762-10.218-42.916-10.218zm-1131.615 1.752 58.22 76.672-60.847 79.23h40.29l40.414-53.886 39.872 53.887h41.166l-60.977-79.739 58.35-76.164h-39.413l-38.368 50.994-38.126-50.994zm185.974 0v155.903h36.496V330.41Zm390.634 0v89.046c0 15.57 2.822 28.513 8.467 38.829 5.644 10.12 13.527 17.712 23.648 22.772 10.121 4.866 21.8 7.3 35.035 7.3 12.067 0 23.161-2.628 33.282-7.883 6.716-3.616 12.361-8.261 16.935-13.934v19.773h34.741V330.41h-36.494v78.826c0 10.316-1.848 18.978-5.546 25.985-3.503 7.007-8.468 12.261-14.89 15.765-6.23 3.503-13.624 5.255-22.188 5.255-11.678 0-20.728-3.405-27.151-10.217-6.229-7.007-9.343-17.518-9.343-31.532V330.41zm400.562 0v155.903h36.493V330.41Zm-130.211 29.194c8.758 0 16.544 1.947 23.357 5.84 7.007 3.892 12.553 9.537 16.64 16.933 4.283 7.201 6.423 15.863 6.423 25.984 0 9.927-2.14 18.587-6.422 25.983-4.088 7.396-9.634 13.04-16.641 16.933-6.813 3.893-14.599 5.84-23.357 5.84-8.76 0-16.642-1.947-23.649-5.84-6.812-3.892-12.36-9.537-16.641-16.933-4.087-7.396-6.131-16.056-6.131-25.983 0-10.12 2.044-18.783 6.13-25.984 4.283-7.396 9.83-13.04 16.642-16.934 7.007-3.892 14.89-5.839 23.648-5.839zm284.947 0c8.759 0 16.642 1.947 23.648 5.84 7.007 3.892 12.455 9.537 16.348 16.933 4.087 7.201 6.131 15.863 6.131 25.984 0 9.927-2.044 18.587-6.13 25.983-3.894 7.396-9.342 13.04-16.349 16.933-7.007 3.893-14.986 5.84-23.94 5.84-8.758 0-16.641-1.947-23.648-5.84-6.812-3.892-12.262-9.537-16.35-16.933-4.087-7.396-6.13-16.056-6.13-25.983 0-10.12 2.043-18.783 6.13-25.984 4.088-7.396 9.538-13.04 16.35-16.934 7.007-3.892 14.987-5.839 23.94-5.839zm-1234.09 59.852h37.663v18.1c-3.114 7.98-8.272 14.015-15.474 18.102-7.007 4.087-14.988 6.13-23.942 6.13-9.342 0-16.64-1.946-21.896-5.838-5.255-3.893-7.881-9.148-7.881-15.765 0-5.84 2.14-10.706 6.422-14.599 4.282-4.087 12.651-6.13 25.108-6.13zM812.043 514.83v216.63h36.494V514.83Zm-182.471 12.261V731.46h37.954v-78.243h98.68v-32.115h-98.68v-62.186h111.235v-31.824zm336.914 46.714c-15.96 0-30.168 3.405-42.625 10.217-12.456 6.812-22.286 16.252-29.488 28.32-7.201 11.873-10.801 25.595-10.801 41.166 0 15.376 3.6 29.099 10.801 41.166 7.202 12.067 17.032 21.604 29.488 28.611 12.457 6.813 26.665 10.218 42.625 10.218 16.155 0 30.462-3.405 42.918-10.218 12.652-7.007 22.48-16.544 29.487-28.611 7.201-12.067 10.803-25.79 10.803-41.166 0-15.766-3.602-29.585-10.803-41.458-7.008-11.873-16.835-21.216-29.487-28.028-12.456-6.812-26.763-10.217-42.918-10.217zm91.091 1.751L1114.8 731.46h35.034l40.968-107.443 40.194 107.443h35.035l57.516-155.903h-32.407l-42.432 115.526-41.943-115.526h-30.656l-43.02 115.127-41.062-115.127zm-90.8 29.195c8.76 0 16.642 1.946 23.649 5.839 7.007 3.893 12.457 9.537 16.35 16.933 4.087 7.202 6.13 15.864 6.13 25.985 0 9.926-2.043 18.588-6.13 25.984-3.893 7.397-9.343 13.04-16.35 16.932-7.007 3.893-14.987 5.84-23.94 5.84-8.759 0-16.642-1.947-23.648-5.84-6.813-3.893-12.263-9.535-16.35-16.932-4.088-7.396-6.131-16.058-6.131-25.984 0-10.121 2.043-18.783 6.13-25.985 4.088-7.396 9.538-13.04 16.35-16.933 7.007-3.893 14.987-5.839 23.94-5.839z" transform="matrix(.94516 0 0 1.05802 -15.191 -276.065)"/>
    <g transform="translate(-15.191 -276.065)">
        <circle style="fill:#000;fill-opacity:1;stroke-width:26.0844;stroke-linecap:round;stroke-linejoin:round;stroke-opacity:.1;paint-order:markers stroke fill" cx="265.191" cy="534.675" r="250" transform="translate(0 -8.61)"/>
        <circle style="display:inline;fill:#ffda0a;fill-opacity:1;stroke-width:22.9543;stroke-linecap:round;stroke-linejoin:round;stroke-opacity:.1;paint-order:markers stroke fill" cx="265.191" cy="534.675" r="230" transform="translate(0 -8.61)"/>
        <path style="display:inline;fill:#ffa60a;stroke-width:20;stroke-linecap:round;stroke-linejoin:round;stroke-opacity:.1;paint-order:markers stroke fill" d="m224.979 335.445-19.301 19.3a17.5 17.5 0 0 0 0 24.75 17.5 17.5 0 0 0 24.75 0l27.172-27.172a230 230 0 0 0-32.621-16.878zm60.947 37.66-68.424 68.423a17.5 17.5 0 0 0 0 24.749 17.5 17.5 0 0 0 24.748 0l68.424-68.424a230 230 0 0 0-24.748-24.748zm45.53 53.074-27.173 27.172a17.5 17.5 0 0 0 0 24.748 17.5 17.5 0 0 0 24.748 0l19.301-19.301a230 230 0 0 0-16.877-32.62zm-266.454 4.539c-2.791.124-5.104.657-6.86 1.646-21.31 12.013-27.609 128.87-17.292 191.747a17.5 17.5 0 0 0-10.729 4.798l-68.418 68.418a230 230 0 0 0 24.746 24.75l64.498-64.498c1.494 2.33 3.103 4.049 4.825 5.067 27.754 16.407 200.283-80.847 200.615-113.086.311-30.225-149.513-120.696-191.385-118.842ZM-44.287 611.96a17.5 17.5 0 0 0-12.373 5.125l-19.002 19.002a230 230 0 0 0 16.693 32.803l27.057-27.057a17.5 17.5 0 0 0 0-24.748 17.5 17.5 0 0 0-12.375-5.125zm98.606 98.604a17.5 17.5 0 0 0-12.375 5.125l-27.057 27.056a230 230 0 0 0 32.805 16.694l19-19a17.5 17.5 0 0 0 0-24.75 17.5 17.5 0 0 0-12.373-5.125z" transform="translate(129.005 -21.527)"/>
    </g>
</svg>
